<svg width="111" height="139" viewBox="0 0 111 139" fill="none" xmlns="http://www.w3.org/2000/svg">
<path d="M76.8663 49.8319L62.9191 71.3087M78.6591 66.406L95.7256 40.126C97.5303 37.3468 96.7405 33.6309 93.9614 31.8261L79.7245 22.5805M62.9191 71.3087L59.0178 77.3162C57.213 80.0953 53.4971 80.8852 50.7179 79.0804L17.0254 57.2002C14.2463 55.3954 13.4565 51.6795 15.2612 48.9004L43.1374 5.9748C44.9422 3.19569 48.6582 2.40584 51.4373 4.21061L79.7245 22.5805M62.9191 71.3087L45.2559 59.8381M59.3902 53.8926L70.3394 37.0322M79.7245 22.5805L70.3394 37.0322M48.2604 22.694L70.3394 37.0322" stroke="black" stroke-width="2"/>
<mask id="path-2-inside-1_31_3235" fill="white">
<path d="M20.91 48.2864C22.3234 46.1099 25.2336 45.4914 27.41 46.9048C29.5865 48.3182 30.2051 51.2283 28.7917 53.4048C27.3783 55.5812 24.4681 56.1998 22.2917 54.7864C20.1152 53.373 19.4966 50.4628 20.91 48.2864Z"/>
</mask>
<path d="M22.6329 54.2609C20.7466 53.036 20.2105 50.5139 21.4355 48.6276L20.3846 47.9452C18.7827 50.4118 19.4838 53.71 21.9504 55.3118L22.6329 54.2609ZM28.2662 53.0635C27.0413 54.9498 24.5191 55.4859 22.6329 54.2609L21.9504 55.3118C24.4171 56.9137 27.7153 56.2126 29.3171 53.746L28.2662 53.0635ZM27.0688 47.4302C28.9551 48.6552 29.4912 51.1773 28.2662 53.0635L29.3171 53.746C30.919 51.2794 30.2179 47.9812 27.7513 46.3793L27.0688 47.4302ZM27.7513 46.3793C25.2846 44.7775 21.9865 45.4785 20.3846 47.9452L21.4355 48.6276C22.6604 46.7414 25.1826 46.2053 27.0688 47.4302L27.7513 46.3793Z" fill="black" mask="url(#path-2-inside-1_31_3235)"/>
<mask id="path-4-inside-2_31_3235" fill="white">
<path d="M59.3235 50.2626L46.7434 42.093L54.913 29.5129L67.4931 37.6825L59.3235 50.2626Z"/>
</mask>
<path d="M67.4931 37.6825L68.3317 38.2272L68.8764 37.3885L68.0377 36.8438L67.4931 37.6825ZM54.3684 30.3516L66.9484 38.5212L68.0377 36.8438L55.4577 28.6743L54.3684 30.3516ZM66.6544 37.1379L58.4848 49.7179L60.1622 50.8072L68.3317 38.2272L66.6544 37.1379Z" fill="black" mask="url(#path-4-inside-2_31_3235)"/>
<mask id="path-6-inside-3_31_3235" fill="white">
<path d="M57.9131 47.5129L70.4931 55.6825L62.3236 68.2626L49.7435 60.093L57.9131 47.5129Z"/>
</mask>
<path d="M62.3236 68.2626L61.7789 69.1013L62.6176 69.6459L63.1622 68.8072L62.3236 68.2626ZM69.6545 55.1379L61.4849 67.7179L63.1622 68.8072L71.3318 56.2272L69.6545 55.1379ZM62.8682 67.4239L50.2881 59.2543L49.1989 60.9317L61.7789 69.1013L62.8682 67.4239Z" fill="black" mask="url(#path-6-inside-3_31_3235)"/>
<mask id="path-8-inside-4_31_3235" fill="white">
<path d="M91.3437 40.3703C89.8216 42.7142 86.6876 43.3803 84.3437 41.8582C81.9998 40.3361 81.3337 37.2021 82.8558 34.8582C84.3779 32.5143 87.5119 31.8482 89.8558 33.3703C92.1997 34.8924 92.8658 38.0264 91.3437 40.3703Z"/>
</mask>
<path d="M89.4883 33.9362C91.5197 35.2553 92.097 37.9715 90.7778 40.0028L91.9096 40.7378C93.6346 38.0814 92.8797 34.5295 90.2233 32.8045L89.4883 33.9362ZM83.4217 35.2257C84.7408 33.1943 87.457 32.617 89.4883 33.9362L90.2233 32.8045C87.5669 31.0794 84.015 31.8343 82.2899 34.4907L83.4217 35.2257ZM84.7112 41.2923C82.6798 39.9732 82.1025 37.257 83.4217 35.2257L82.2899 34.4907C80.5649 37.1471 81.3198 40.699 83.9762 42.4241L84.7112 41.2923ZM83.9762 42.4241C86.6326 44.1491 90.1845 43.3942 91.9096 40.7378L90.7778 40.0028C89.4587 42.0342 86.7425 42.6115 84.7112 41.2923L83.9762 42.4241Z" fill="black" mask="url(#path-8-inside-4_31_3235)"/>
<path d="M18.2951 103.265C18.2951 102.885 18.2359 102.546 18.1174 102.25C18.0074 101.954 17.8085 101.683 17.5207 101.437C17.2329 101.192 16.8267 100.955 16.302 100.726C15.7857 100.489 15.1255 100.248 14.3215 100.003C13.4413 99.7319 12.6288 99.4314 11.884 99.1013C11.1477 98.7628 10.5044 98.3735 9.9543 97.9333C9.40417 97.4848 8.97676 96.9727 8.67207 96.3972C8.36738 95.8132 8.21504 95.1404 8.21504 94.3787C8.21504 93.6254 8.37161 92.9399 8.68476 92.322C9.00638 91.7042 9.45918 91.171 10.0432 90.7224C10.6356 90.2654 11.3339 89.9141 12.1379 89.6687C12.9419 89.4148 13.8306 89.2878 14.8039 89.2878C16.175 89.2878 17.3557 89.5417 18.3459 90.0496C19.3446 90.5574 20.1105 91.2387 20.6437 92.0935C21.1854 92.9483 21.4562 93.892 21.4562 94.9246H18.2951C18.2951 94.3152 18.1639 93.7778 17.9016 93.3123C17.6477 92.8383 17.2583 92.4659 16.7336 92.1951C16.2173 91.9242 15.5614 91.7888 14.7658 91.7888C14.0126 91.7888 13.3863 91.9031 12.8869 92.1316C12.3876 92.3601 12.0152 92.669 11.7697 93.0583C11.5243 93.4477 11.4016 93.8878 11.4016 94.3787C11.4016 94.7257 11.482 95.0431 11.6428 95.3308C11.8036 95.6101 12.049 95.8725 12.3791 96.1179C12.7092 96.3549 13.1239 96.5792 13.6232 96.7908C14.1226 97.0024 14.7108 97.2055 15.3879 97.4001C16.412 97.7048 17.3049 98.0434 18.0666 98.4158C18.8283 98.7797 19.4631 99.1944 19.9709 99.6599C20.4787 100.125 20.8596 100.654 21.1135 101.247C21.3674 101.831 21.4943 102.495 21.4943 103.24C21.4943 104.019 21.3378 104.721 21.0246 105.347C20.7115 105.965 20.2629 106.494 19.6789 106.934C19.1034 107.366 18.4094 107.7 17.5969 107.937C16.7928 108.166 15.8957 108.28 14.9055 108.28C14.0168 108.28 13.1408 108.162 12.2775 107.925C11.4227 107.688 10.6441 107.328 9.9416 106.845C9.23913 106.355 8.68053 105.745 8.26582 105.017C7.85111 104.281 7.64375 103.422 7.64375 102.44H10.8303C10.8303 103.041 10.9318 103.553 11.135 103.976C11.3465 104.399 11.6385 104.747 12.0109 105.017C12.3833 105.28 12.815 105.474 13.3059 105.601C13.8052 105.728 14.3384 105.792 14.9055 105.792C15.6503 105.792 16.2723 105.686 16.7717 105.474C17.2795 105.263 17.6604 104.967 17.9143 104.586C18.1682 104.205 18.2951 103.765 18.2951 103.265ZM31.7603 96.9304V113.307H28.7007V94.2898H31.5191L31.7603 96.9304ZM40.7105 101.031V101.298C40.7105 102.296 40.592 103.223 40.355 104.078C40.1265 104.924 39.7837 105.665 39.3267 106.3C38.8781 106.926 38.3237 107.413 37.6636 107.76C37.0034 108.107 36.2417 108.28 35.3784 108.28C34.5236 108.28 33.7746 108.123 33.1314 107.81C32.4966 107.489 31.9592 107.036 31.5191 106.452C31.079 105.868 30.7235 105.182 30.4527 104.395C30.1903 103.6 30.0041 102.728 29.8941 101.78V100.752C30.0041 99.7445 30.1903 98.8305 30.4527 98.0095C30.7235 97.1886 31.079 96.4819 31.5191 95.8894C31.9592 95.297 32.4966 94.8399 33.1314 94.5183C33.7661 94.1967 34.5067 94.0359 35.353 94.0359C36.2163 94.0359 36.9823 94.2052 37.6509 94.5437C38.3195 94.8738 38.8823 95.3477 39.3394 95.9656C39.7964 96.575 40.1392 97.3113 40.3677 98.1746C40.5962 99.0294 40.7105 99.9815 40.7105 101.031ZM37.6509 101.298V101.031C37.6509 100.396 37.5917 99.808 37.4732 99.2664C37.3547 98.7162 37.1685 98.2338 36.9146 97.8191C36.6607 97.4044 36.3348 97.0828 35.937 96.8542C35.5477 96.6173 35.078 96.4988 34.5279 96.4988C33.9862 96.4988 33.5207 96.5919 33.1314 96.7781C32.742 96.9558 32.4162 97.2055 32.1538 97.5271C31.8915 97.8487 31.6883 98.2253 31.5445 98.657C31.4006 99.0802 31.299 99.5414 31.2398 100.041V102.504C31.3413 103.113 31.5148 103.672 31.7603 104.179C32.0057 104.687 32.3527 105.094 32.8013 105.398C33.2583 105.694 33.8423 105.843 34.5532 105.843C35.1034 105.843 35.5731 105.724 35.9624 105.487C36.3517 105.25 36.6691 104.924 36.9146 104.51C37.1685 104.086 37.3547 103.6 37.4732 103.05C37.5917 102.499 37.6509 101.915 37.6509 101.298ZM51.0653 96.905V108.026H48.0057V94.2898H50.9256L51.0653 96.905ZM55.2674 94.2009L55.242 97.0447C55.0558 97.0108 54.8527 96.9854 54.6327 96.9685C54.4211 96.9516 54.2095 96.9431 53.9979 96.9431C53.4732 96.9431 53.0119 97.0193 52.6141 97.1716C52.2163 97.3155 51.882 97.5271 51.6112 97.8064C51.3488 98.0772 51.1457 98.4073 51.0018 98.7966C50.8579 99.186 50.7733 99.6218 50.7479 100.104L50.0496 100.155C50.0496 99.2917 50.1343 98.4919 50.3036 97.7556C50.4728 97.0193 50.7267 96.3718 51.0653 95.8132C51.4123 95.2546 51.8439 94.8188 52.3602 94.5056C52.8849 94.1925 53.4901 94.0359 54.1756 94.0359C54.3618 94.0359 54.5607 94.0528 54.7723 94.0867C54.9924 94.1205 55.1574 94.1586 55.2674 94.2009ZM65.1398 94.2898V108.026H62.0675V94.2898H65.1398ZM61.8644 90.6843C61.8644 90.2188 62.0168 89.8337 62.3214 89.5291C62.6346 89.2159 63.0662 89.0593 63.6164 89.0593C64.158 89.0593 64.5854 89.2159 64.8986 89.5291C65.2117 89.8337 65.3683 90.2188 65.3683 90.6843C65.3683 91.1414 65.2117 91.5222 64.8986 91.8269C64.5854 92.1316 64.158 92.2839 63.6164 92.2839C63.0662 92.2839 62.6346 92.1316 62.3214 91.8269C62.0168 91.5222 61.8644 91.1414 61.8644 90.6843ZM76.2056 97.2224V108.026H73.146V94.2898H76.0278L76.2056 97.2224ZM75.6597 100.65L74.6694 100.637C74.6779 99.6641 74.8133 98.7712 75.0757 97.9587C75.3465 97.1462 75.7189 96.448 76.1929 95.864C76.6753 95.28 77.2508 94.8315 77.9194 94.5183C78.588 94.1967 79.3328 94.0359 80.1538 94.0359C80.8139 94.0359 81.4106 94.129 81.9438 94.3152C82.4855 94.4929 82.9468 94.7849 83.3276 95.1912C83.7169 95.5974 84.0132 96.1264 84.2163 96.7781C84.4194 97.4213 84.521 98.2126 84.521 99.1521V108.026H81.4487V99.1394C81.4487 98.4792 81.3514 97.9587 81.1567 97.5779C80.9705 97.1886 80.6955 96.9135 80.3315 96.7527C79.9761 96.5834 79.5317 96.4988 78.9985 96.4988C78.4738 96.4988 78.0041 96.6088 77.5893 96.8289C77.1746 97.0489 76.8234 97.3494 76.5356 97.7302C76.2563 98.1111 76.0405 98.5512 75.8882 99.0505C75.7358 99.5499 75.6597 100.083 75.6597 100.65ZM95.409 88.5261V108.026H92.3367V88.5261H95.409ZM103.94 94.2898L97.9607 100.917L94.6853 104.268L93.8855 101.678L96.3611 98.6189L100.246 94.2898H103.94ZM100.906 108.026L96.45 101.577L98.3797 99.4314L104.448 108.026H100.906Z" fill="black"/>
<path d="M11.4864 125.069V126.173H5.15141V125.069H11.4864ZM8.90922 122.371V129.099H7.7349V122.371H8.90922ZM24.431 121.603L21.3714 130.026H20.121L23.6439 120.784H24.4501L24.431 121.603ZM26.9955 130.026L23.9296 121.603L23.9105 120.784H24.7167L28.2523 130.026H26.9955ZM26.8368 126.605V127.608H21.6444V126.605H26.8368ZM35.7783 128.439V123.158H36.959V130.026H35.8355L35.7783 128.439ZM36.0005 126.992L36.4893 126.979C36.4893 127.436 36.4406 127.859 36.3433 128.249C36.2502 128.634 36.0978 128.968 35.8862 129.252C35.6747 129.535 35.3975 129.757 35.0547 129.918C34.7119 130.075 34.2951 130.153 33.8042 130.153C33.4699 130.153 33.1631 130.104 32.8838 130.007C32.6087 129.91 32.3718 129.76 32.1729 129.556C31.974 129.353 31.8195 129.089 31.7095 128.763C31.6037 128.437 31.5508 128.046 31.5508 127.589V123.158H32.7251V127.601C32.7251 127.91 32.759 128.166 32.8267 128.369C32.8986 128.568 32.9938 128.727 33.1123 128.845C33.235 128.96 33.3705 129.04 33.5186 129.087C33.6709 129.133 33.8275 129.156 33.9883 129.156C34.4876 129.156 34.8833 129.061 35.1753 128.871C35.4673 128.676 35.6768 128.416 35.8037 128.09C35.9349 127.76 36.0005 127.394 36.0005 126.992ZM43.9645 123.158V124.059H40.2512V123.158H43.9645ZM41.508 121.489H42.6823V128.325C42.6823 128.558 42.7183 128.733 42.7902 128.852C42.8622 128.97 42.9553 129.049 43.0695 129.087C43.1838 129.125 43.3065 129.144 43.4377 129.144C43.535 129.144 43.6366 129.135 43.7424 129.118C43.8524 129.097 43.9349 129.08 43.9899 129.068L43.9963 130.026C43.9032 130.056 43.7804 130.083 43.6281 130.109C43.48 130.138 43.3001 130.153 43.0886 130.153C42.8008 130.153 42.5363 130.096 42.2951 129.982C42.0539 129.867 41.8613 129.677 41.7175 129.41C41.5778 129.14 41.508 128.776 41.508 128.319V121.489ZM47.244 126.668V126.522C47.244 126.027 47.3159 125.568 47.4598 125.145C47.6037 124.717 47.811 124.347 48.0819 124.034C48.3527 123.717 48.6807 123.471 49.0658 123.298C49.4509 123.12 49.8825 123.031 50.3607 123.031C50.8431 123.031 51.2769 123.12 51.662 123.298C52.0513 123.471 52.3814 123.717 52.6522 124.034C52.9273 124.347 53.1367 124.717 53.2806 125.145C53.4245 125.568 53.4964 126.027 53.4964 126.522V126.668C53.4964 127.163 53.4245 127.622 53.2806 128.046C53.1367 128.469 52.9273 128.839 52.6522 129.156C52.3814 129.47 52.0534 129.715 51.6683 129.893C51.2874 130.066 50.8558 130.153 50.3734 130.153C49.891 130.153 49.4572 130.066 49.0721 129.893C48.687 129.715 48.3569 129.47 48.0819 129.156C47.811 128.839 47.6037 128.469 47.4598 128.046C47.3159 127.622 47.244 127.163 47.244 126.668ZM48.4183 126.522V126.668C48.4183 127.011 48.4585 127.335 48.5389 127.639C48.6193 127.94 48.7399 128.206 48.9007 128.439C49.0658 128.672 49.271 128.856 49.5164 128.991C49.7619 129.123 50.0475 129.188 50.3734 129.188C50.695 129.188 50.9764 129.123 51.2176 128.991C51.4631 128.856 51.6662 128.672 51.827 128.439C51.9878 128.206 52.1084 127.94 52.1888 127.639C52.2734 127.335 52.3158 127.011 52.3158 126.668V126.522C52.3158 126.184 52.2734 125.864 52.1888 125.564C52.1084 125.259 51.9857 124.99 51.8206 124.758C51.6598 124.521 51.4567 124.334 51.2113 124.199C50.9701 124.064 50.6865 123.996 50.3607 123.996C50.0391 123.996 49.7555 124.064 49.5101 124.199C49.2689 124.334 49.0658 124.521 48.9007 124.758C48.7399 124.99 48.6193 125.259 48.5389 125.564C48.4585 125.864 48.4183 126.184 48.4183 126.522ZM58.4834 124.478V132.667H57.3027V123.158H58.3818L58.4834 124.478ZM63.1108 126.535V126.668C63.1108 127.168 63.0516 127.631 62.9331 128.058C62.8146 128.482 62.6411 128.85 62.4126 129.163C62.1883 129.476 61.9111 129.719 61.5811 129.893C61.251 130.066 60.8722 130.153 60.4448 130.153C60.009 130.153 59.6239 130.081 59.2896 129.937C58.9552 129.793 58.6717 129.584 58.439 129.309C58.2062 129.034 58.02 128.704 57.8804 128.319C57.745 127.934 57.6519 127.5 57.6011 127.017V126.306C57.6519 125.799 57.7471 125.344 57.8867 124.942C58.0264 124.54 58.2104 124.197 58.439 123.913C58.6717 123.626 58.9531 123.408 59.2832 123.26C59.6133 123.107 59.9941 123.031 60.4258 123.031C60.8574 123.031 61.2404 123.116 61.5747 123.285C61.909 123.45 62.1904 123.687 62.4189 123.996C62.6475 124.305 62.8188 124.675 62.9331 125.107C63.0516 125.534 63.1108 126.01 63.1108 126.535ZM61.9302 126.668V126.535C61.9302 126.192 61.8942 125.871 61.8223 125.57C61.7503 125.265 61.6382 124.999 61.4858 124.77C61.3377 124.538 61.1473 124.356 60.9146 124.224C60.6818 124.089 60.4046 124.021 60.083 124.021C59.7868 124.021 59.5286 124.072 59.3086 124.174C59.0928 124.275 58.9087 124.413 58.7563 124.586C58.604 124.755 58.4792 124.95 58.3818 125.17C58.2887 125.386 58.2189 125.61 58.1724 125.843V127.487C58.257 127.783 58.3755 128.063 58.5278 128.325C58.6802 128.583 58.8833 128.793 59.1372 128.953C59.3911 129.11 59.7106 129.188 60.0957 129.188C60.4131 129.188 60.686 129.123 60.9146 128.991C61.1473 128.856 61.3377 128.672 61.4858 128.439C61.6382 128.206 61.7503 127.94 61.8223 127.639C61.8942 127.335 61.9302 127.011 61.9302 126.668ZM68.2248 123.158V130.026H67.0441V123.158H68.2248ZM66.9552 121.336C66.9552 121.146 67.0124 120.985 67.1266 120.854C67.2451 120.723 67.4186 120.657 67.6471 120.657C67.8714 120.657 68.0428 120.723 68.1613 120.854C68.284 120.985 68.3454 121.146 68.3454 121.336C68.3454 121.518 68.284 121.675 68.1613 121.806C68.0428 121.933 67.8714 121.996 67.6471 121.996C67.4186 121.996 67.2451 121.933 67.1266 121.806C67.0124 121.675 66.9552 121.518 66.9552 121.336ZM73.7259 120.276V130.026H72.5452V120.276H73.7259ZM77.6401 126.668V126.522C77.6401 126.027 77.7121 125.568 77.8559 125.145C77.9998 124.717 78.2072 124.347 78.478 124.034C78.7488 123.717 79.0768 123.471 79.4619 123.298C79.847 123.12 80.2786 123.031 80.7568 123.031C81.2392 123.031 81.673 123.12 82.0581 123.298C82.4474 123.471 82.7775 123.717 83.0483 124.034C83.3234 124.347 83.5329 124.717 83.6767 125.145C83.8206 125.568 83.8926 126.027 83.8926 126.522V126.668C83.8926 127.163 83.8206 127.622 83.6767 128.046C83.5329 128.469 83.3234 128.839 83.0483 129.156C82.7775 129.47 82.4495 129.715 82.0644 129.893C81.6836 130.066 81.2519 130.153 80.7695 130.153C80.2871 130.153 79.8533 130.066 79.4682 129.893C79.0831 129.715 78.7531 129.47 78.478 129.156C78.2072 128.839 77.9998 128.469 77.8559 128.046C77.7121 127.622 77.6401 127.163 77.6401 126.668ZM78.8144 126.522V126.668C78.8144 127.011 78.8546 127.335 78.935 127.639C79.0154 127.94 79.136 128.206 79.2969 128.439C79.4619 128.672 79.6671 128.856 79.9126 128.991C80.158 129.123 80.4437 129.188 80.7695 129.188C81.0911 129.188 81.3725 129.123 81.6137 128.991C81.8592 128.856 82.0623 128.672 82.2231 128.439C82.3839 128.206 82.5045 127.94 82.5849 127.639C82.6696 127.335 82.7119 127.011 82.7119 126.668V126.522C82.7119 126.184 82.6696 125.864 82.5849 125.564C82.5045 125.259 82.3818 124.99 82.2168 124.758C82.056 124.521 81.8528 124.334 81.6074 124.199C81.3662 124.064 81.0827 123.996 80.7568 123.996C80.4352 123.996 80.1517 124.064 79.9062 124.199C79.665 124.334 79.4619 124.521 79.2969 124.758C79.136 124.99 79.0154 125.259 78.935 125.564C78.8546 125.864 78.8144 126.184 78.8144 126.522ZM90.5807 123.158V124.059H86.8673V123.158H90.5807ZM88.1242 121.489H89.2985V128.325C89.2985 128.558 89.3344 128.733 89.4064 128.852C89.4783 128.97 89.5714 129.049 89.6857 129.087C89.7999 129.125 89.9227 129.144 90.0538 129.144C90.1512 129.144 90.2527 129.135 90.3585 129.118C90.4686 129.097 90.5511 129.08 90.6061 129.068L90.6124 130.026C90.5193 130.056 90.3966 130.083 90.2443 130.109C90.0962 130.138 89.9163 130.153 89.7047 130.153C89.417 130.153 89.1525 130.096 88.9113 129.982C88.6701 129.867 88.4775 129.677 88.3336 129.41C88.194 129.14 88.1242 128.776 88.1242 128.319V121.489ZM105.798 125.069V126.173H99.4629V125.069H105.798ZM103.221 122.371V129.099H102.046V122.371H103.221Z" fill="black"/>
</svg>
