<svg width="111" height="139" viewBox="0 0 111 139" fill="none" xmlns="http://www.w3.org/2000/svg">
<path d="M76.8663 49.8319L62.9191 71.3087M78.6591 66.406L95.7256 40.126C97.5303 37.3468 96.7405 33.6309 93.9614 31.8261L79.7245 22.5805M62.9191 71.3087L59.0178 77.3162C57.213 80.0953 53.4971 80.8852 50.7179 79.0804L17.0254 57.2002C14.2463 55.3954 13.4565 51.6795 15.2612 48.9004L43.1374 5.9748C44.9422 3.19569 48.6582 2.40584 51.4373 4.21061L79.7245 22.5805M62.9191 71.3087L45.2559 59.8381M59.3902 53.8926L70.3394 37.0322M79.7245 22.5805L70.3394 37.0322M48.2604 22.694L70.3394 37.0322" stroke="white" stroke-width="2"/>
<mask id="path-2-inside-1_6_239" fill="white">
<path d="M20.0006 47.6959C21.7402 45.0172 25.3219 44.2559 28.0006 45.9955C30.6793 47.735 31.4406 51.3168 29.7011 53.9955C27.9615 56.6742 24.3798 57.4355 21.7011 55.6959C19.0224 53.9564 18.261 50.3746 20.0006 47.6959Z"/>
</mask>
<path d="M22.121 55.0492C19.7995 53.5416 19.1397 50.4374 20.6473 48.1159L19.3539 47.276C17.3824 50.3118 18.2452 54.3711 21.2811 56.3426L22.121 55.0492ZM29.0544 53.5755C27.5467 55.8971 24.4426 56.5569 22.121 55.0492L21.2811 56.3426C24.317 58.3141 28.3763 57.4513 30.3478 54.4154L29.0544 53.5755ZM27.5806 46.6422C29.9022 48.1498 30.562 51.254 29.0544 53.5755L30.3478 54.4154C32.3193 51.3796 31.4565 47.3203 28.4206 45.3488L27.5806 46.6422ZM28.4206 45.3488C25.3847 43.3773 21.3254 44.2401 19.3539 47.276L20.6473 48.1159C22.1549 45.7944 25.2591 45.1345 27.5806 46.6422L28.4206 45.3488Z" fill="white" mask="url(#path-2-inside-1_6_239)"/>
<mask id="path-4-inside-2_6_239" fill="white">
<path d="M59.3235 50.2627L46.7434 42.0931L54.913 29.5131L67.4931 37.6826L59.3235 50.2627Z"/>
</mask>
<path d="M67.4931 37.6826L68.3317 38.2273L68.8764 37.3886L68.0377 36.844L67.4931 37.6826ZM54.3684 30.3517L66.9484 38.5213L68.0377 36.844L55.4577 28.6744L54.3684 30.3517ZM66.6544 37.138L58.4848 49.7181L60.1622 50.8073L68.3317 38.2273L66.6544 37.138Z" fill="white" mask="url(#path-4-inside-2_6_239)"/>
<mask id="path-6-inside-3_6_239" fill="white">
<path d="M57.9131 47.5132L70.4931 55.6828L62.3236 68.2628L49.7435 60.0932L57.9131 47.5132Z"/>
</mask>
<path d="M62.3236 68.2628L61.7789 69.1015L62.6176 69.6461L63.1622 68.8075L62.3236 68.2628ZM69.6545 55.1381L61.4849 67.7182L63.1622 68.8075L71.3318 56.2274L69.6545 55.1381ZM62.8682 67.4242L50.2881 59.2546L49.1989 60.9319L61.7789 69.1015L62.8682 67.4242Z" fill="white" mask="url(#path-6-inside-3_6_239)"/>
<mask id="path-8-inside-4_6_239" fill="white">
<path d="M92.2531 40.9609C90.4048 43.807 86.5993 44.6159 83.7531 42.7676C80.907 40.9193 80.0981 37.1137 81.9464 34.2676C83.7947 31.4215 87.6003 30.6126 90.4464 32.4609C93.2925 34.3092 94.1014 38.1148 92.2531 40.9609Z"/>
</mask>
<path d="M90.0002 33.148C92.4668 34.7499 93.1679 38.048 91.566 40.5147L92.9402 41.4071C95.035 38.1815 94.1182 33.8685 90.8926 31.7738L90.0002 33.148ZM82.6335 34.7138C84.2354 32.2472 87.5335 31.5462 90.0002 33.148L90.8926 31.7738C87.667 29.679 83.354 30.5958 81.2593 33.8214L82.6335 34.7138ZM84.1993 42.0805C81.7327 40.4787 81.0317 37.1805 82.6335 34.7138L81.2593 33.8214C79.1645 37.047 80.0813 41.36 83.3069 43.4547L84.1993 42.0805ZM83.3069 43.4547C86.5325 45.5495 90.8455 44.6327 92.9402 41.4071L91.566 40.5147C89.9642 42.9813 86.666 43.6824 84.1993 42.0805L83.3069 43.4547Z" fill="white" mask="url(#path-8-inside-4_6_239)"/>
<path d="M18.2951 103.266C18.2951 102.885 18.2359 102.546 18.1174 102.25C18.0074 101.954 17.8085 101.683 17.5207 101.438C17.2329 101.192 16.8267 100.955 16.302 100.727C15.7857 100.49 15.1255 100.248 14.3215 100.003C13.4413 99.7321 12.6288 99.4316 11.884 99.1016C11.1477 98.763 10.5044 98.3737 9.9543 97.9336C9.40417 97.485 8.97676 96.973 8.67207 96.3975C8.36738 95.8135 8.21504 95.1406 8.21504 94.3789C8.21504 93.6257 8.37161 92.9401 8.68476 92.3223C9.00638 91.7044 9.45918 91.1712 10.0432 90.7227C10.6356 90.2656 11.3339 89.9144 12.1379 89.6689C12.9419 89.415 13.8306 89.2881 14.8039 89.2881C16.175 89.2881 17.3557 89.542 18.3459 90.0498C19.3446 90.5576 20.1105 91.2389 20.6437 92.0938C21.1854 92.9486 21.4562 93.8923 21.4562 94.9248H18.2951C18.2951 94.3154 18.1639 93.778 17.9016 93.3125C17.6477 92.8385 17.2583 92.4661 16.7336 92.1953C16.2173 91.9245 15.5614 91.7891 14.7658 91.7891C14.0126 91.7891 13.3863 91.9033 12.8869 92.1318C12.3876 92.3604 12.0152 92.6693 11.7697 93.0586C11.5243 93.4479 11.4016 93.888 11.4016 94.3789C11.4016 94.7259 11.482 95.0433 11.6428 95.3311C11.8036 95.6104 12.049 95.8727 12.3791 96.1182C12.7092 96.3551 13.1239 96.5794 13.6232 96.791C14.1226 97.0026 14.7108 97.2057 15.3879 97.4004C16.412 97.7051 17.3049 98.0436 18.0666 98.416C18.8283 98.7799 19.4631 99.1947 19.9709 99.6602C20.4787 100.126 20.8596 100.655 21.1135 101.247C21.3674 101.831 21.4943 102.495 21.4943 103.24C21.4943 104.019 21.3378 104.721 21.0246 105.348C20.7115 105.965 20.2629 106.494 19.6789 106.935C19.1034 107.366 18.4094 107.701 17.5969 107.938C16.7928 108.166 15.8957 108.28 14.9055 108.28C14.0168 108.28 13.1408 108.162 12.2775 107.925C11.4227 107.688 10.6441 107.328 9.9416 106.846C9.23913 106.355 8.68053 105.745 8.26582 105.018C7.85111 104.281 7.64375 103.422 7.64375 102.44H10.8303C10.8303 103.041 10.9318 103.553 11.135 103.977C11.3465 104.4 11.6385 104.747 12.0109 105.018C12.3833 105.28 12.815 105.475 13.3059 105.602C13.8052 105.729 14.3384 105.792 14.9055 105.792C15.6503 105.792 16.2723 105.686 16.7717 105.475C17.2795 105.263 17.6604 104.967 17.9143 104.586C18.1682 104.205 18.2951 103.765 18.2951 103.266ZM31.7603 96.9307V113.308H28.7007V94.29H31.5191L31.7603 96.9307ZM40.7105 101.031V101.298C40.7105 102.297 40.592 103.223 40.355 104.078C40.1265 104.924 39.7837 105.665 39.3267 106.3C38.8781 106.926 38.3237 107.413 37.6636 107.76C37.0034 108.107 36.2417 108.28 35.3784 108.28C34.5236 108.28 33.7746 108.124 33.1314 107.811C32.4966 107.489 31.9592 107.036 31.5191 106.452C31.079 105.868 30.7235 105.183 30.4527 104.396C30.1903 103.6 30.0041 102.728 29.8941 101.78V100.752C30.0041 99.7448 30.1903 98.8307 30.4527 98.0098C30.7235 97.1888 31.079 96.4821 31.5191 95.8896C31.9592 95.2972 32.4966 94.8402 33.1314 94.5186C33.7661 94.1969 34.5067 94.0361 35.353 94.0361C36.2163 94.0361 36.9823 94.2054 37.6509 94.5439C38.3195 94.874 38.8823 95.348 39.3394 95.9658C39.7964 96.5752 40.1392 97.3115 40.3677 98.1748C40.5962 99.0296 40.7105 99.9818 40.7105 101.031ZM37.6509 101.298V101.031C37.6509 100.396 37.5917 99.8083 37.4732 99.2666C37.3547 98.7165 37.1685 98.234 36.9146 97.8193C36.6607 97.4046 36.3348 97.083 35.937 96.8545C35.5477 96.6175 35.078 96.499 34.5279 96.499C33.9862 96.499 33.5207 96.5921 33.1314 96.7783C32.742 96.9561 32.4162 97.2057 32.1538 97.5273C31.8915 97.849 31.6883 98.2256 31.5445 98.6572C31.4006 99.0804 31.299 99.5417 31.2398 100.041V102.504C31.3413 103.113 31.5148 103.672 31.7603 104.18C32.0057 104.688 32.3527 105.094 32.8013 105.398C33.2583 105.695 33.8423 105.843 34.5532 105.843C35.1034 105.843 35.5731 105.724 35.9624 105.487C36.3517 105.25 36.6691 104.924 36.9146 104.51C37.1685 104.087 37.3547 103.6 37.4732 103.05C37.5917 102.5 37.6509 101.916 37.6509 101.298ZM51.0653 96.9053V108.026H48.0057V94.29H50.9256L51.0653 96.9053ZM55.2674 94.2012L55.242 97.0449C55.0558 97.0111 54.8527 96.9857 54.6327 96.9688C54.4211 96.9518 54.2095 96.9434 53.9979 96.9434C53.4732 96.9434 53.0119 97.0195 52.6141 97.1719C52.2163 97.3158 51.882 97.5273 51.6112 97.8066C51.3488 98.0775 51.1457 98.4076 51.0018 98.7969C50.8579 99.1862 50.7733 99.6221 50.7479 100.104L50.0496 100.155C50.0496 99.292 50.1343 98.4922 50.3036 97.7559C50.4728 97.0195 50.7267 96.3721 51.0653 95.8135C51.4123 95.2549 51.8439 94.819 52.3602 94.5059C52.8849 94.1927 53.4901 94.0361 54.1756 94.0361C54.3618 94.0361 54.5607 94.0531 54.7723 94.0869C54.9924 94.1208 55.1574 94.1589 55.2674 94.2012ZM65.1398 94.29V108.026H62.0675V94.29H65.1398ZM61.8644 90.6846C61.8644 90.2191 62.0168 89.834 62.3214 89.5293C62.6346 89.2161 63.0662 89.0596 63.6164 89.0596C64.158 89.0596 64.5854 89.2161 64.8986 89.5293C65.2117 89.834 65.3683 90.2191 65.3683 90.6846C65.3683 91.1416 65.2117 91.5225 64.8986 91.8271C64.5854 92.1318 64.158 92.2842 63.6164 92.2842C63.0662 92.2842 62.6346 92.1318 62.3214 91.8271C62.0168 91.5225 61.8644 91.1416 61.8644 90.6846ZM76.2056 97.2227V108.026H73.146V94.29H76.0278L76.2056 97.2227ZM75.6597 100.65L74.6694 100.638C74.6779 99.6644 74.8133 98.7715 75.0757 97.959C75.3465 97.1465 75.7189 96.4482 76.1929 95.8643C76.6753 95.2803 77.2508 94.8317 77.9194 94.5186C78.588 94.1969 79.3328 94.0361 80.1538 94.0361C80.8139 94.0361 81.4106 94.1292 81.9438 94.3154C82.4855 94.4932 82.9468 94.7852 83.3276 95.1914C83.7169 95.5977 84.0132 96.1266 84.2163 96.7783C84.4194 97.4215 84.521 98.2129 84.521 99.1523V108.026H81.4487V99.1396C81.4487 98.4795 81.3514 97.959 81.1567 97.5781C80.9705 97.1888 80.6955 96.9137 80.3315 96.7529C79.9761 96.5837 79.5317 96.499 78.9985 96.499C78.4738 96.499 78.0041 96.609 77.5893 96.8291C77.1746 97.0492 76.8234 97.3496 76.5356 97.7305C76.2563 98.1113 76.0405 98.5514 75.8882 99.0508C75.7358 99.5501 75.6597 100.083 75.6597 100.65ZM95.409 88.5264V108.026H92.3367V88.5264H95.409ZM103.94 94.29L97.9607 100.917L94.6853 104.269L93.8855 101.679L96.3611 98.6191L100.246 94.29H103.94ZM100.906 108.026L96.45 101.577L98.3797 99.4316L104.448 108.026H100.906Z" fill="white"/>
<path d="M11.4864 125.069V126.173H5.15141V125.069H11.4864ZM8.90922 122.371V129.1H7.7349V122.371H8.90922ZM24.431 121.603L21.3714 130.026H20.121L23.6439 120.784H24.4501L24.431 121.603ZM26.9955 130.026L23.9296 121.603L23.9105 120.784H24.7167L28.2523 130.026H26.9955ZM26.8368 126.605V127.608H21.6444V126.605H26.8368ZM35.7783 128.439V123.158H36.959V130.026H35.8355L35.7783 128.439ZM36.0005 126.992L36.4893 126.979C36.4893 127.437 36.4406 127.86 36.3433 128.249C36.2502 128.634 36.0978 128.968 35.8862 129.252C35.6747 129.535 35.3975 129.758 35.0547 129.918C34.7119 130.075 34.2951 130.153 33.8042 130.153C33.4699 130.153 33.1631 130.105 32.8838 130.007C32.6087 129.91 32.3718 129.76 32.1729 129.557C31.974 129.354 31.8195 129.089 31.7095 128.763C31.6037 128.437 31.5508 128.046 31.5508 127.589V123.158H32.7251V127.602C32.7251 127.91 32.759 128.167 32.8267 128.37C32.8986 128.569 32.9938 128.727 33.1123 128.846C33.235 128.96 33.3705 129.04 33.5186 129.087C33.6709 129.133 33.8275 129.157 33.9883 129.157C34.4876 129.157 34.8833 129.062 35.1753 128.871C35.4673 128.676 35.6768 128.416 35.8037 128.09C35.9349 127.76 36.0005 127.394 36.0005 126.992ZM43.9645 123.158V124.06H40.2512V123.158H43.9645ZM41.508 121.489H42.6823V128.325C42.6823 128.558 42.7183 128.734 42.7902 128.852C42.8622 128.971 42.9553 129.049 43.0695 129.087C43.1838 129.125 43.3065 129.144 43.4377 129.144C43.535 129.144 43.6366 129.136 43.7424 129.119C43.8524 129.097 43.9349 129.081 43.9899 129.068L43.9963 130.026C43.9032 130.056 43.7804 130.083 43.6281 130.109C43.48 130.139 43.3001 130.153 43.0886 130.153C42.8008 130.153 42.5363 130.096 42.2951 129.982C42.0539 129.868 41.8613 129.677 41.7175 129.411C41.5778 129.14 41.508 128.776 41.508 128.319V121.489ZM47.244 126.668V126.522C47.244 126.027 47.3159 125.568 47.4598 125.145C47.6037 124.718 47.811 124.347 48.0819 124.034C48.3527 123.717 48.6807 123.471 49.0658 123.298C49.4509 123.12 49.8825 123.031 50.3607 123.031C50.8431 123.031 51.2769 123.12 51.662 123.298C52.0513 123.471 52.3814 123.717 52.6522 124.034C52.9273 124.347 53.1367 124.718 53.2806 125.145C53.4245 125.568 53.4964 126.027 53.4964 126.522V126.668C53.4964 127.164 53.4245 127.623 53.2806 128.046C53.1367 128.469 52.9273 128.839 52.6522 129.157C52.3814 129.47 52.0534 129.715 51.6683 129.893C51.2874 130.067 50.8558 130.153 50.3734 130.153C49.891 130.153 49.4572 130.067 49.0721 129.893C48.687 129.715 48.3569 129.47 48.0819 129.157C47.811 128.839 47.6037 128.469 47.4598 128.046C47.3159 127.623 47.244 127.164 47.244 126.668ZM48.4183 126.522V126.668C48.4183 127.011 48.4585 127.335 48.5389 127.64C48.6193 127.94 48.7399 128.207 48.9007 128.439C49.0658 128.672 49.271 128.856 49.5164 128.992C49.7619 129.123 50.0475 129.188 50.3734 129.188C50.695 129.188 50.9764 129.123 51.2176 128.992C51.4631 128.856 51.6662 128.672 51.827 128.439C51.9878 128.207 52.1084 127.94 52.1888 127.64C52.2734 127.335 52.3158 127.011 52.3158 126.668V126.522C52.3158 126.184 52.2734 125.864 52.1888 125.564C52.1084 125.259 51.9857 124.991 51.8206 124.758C51.6598 124.521 51.4567 124.335 51.2113 124.199C50.9701 124.064 50.6865 123.996 50.3607 123.996C50.0391 123.996 49.7555 124.064 49.5101 124.199C49.2689 124.335 49.0658 124.521 48.9007 124.758C48.7399 124.991 48.6193 125.259 48.5389 125.564C48.4585 125.864 48.4183 126.184 48.4183 126.522ZM58.4834 124.479V132.667H57.3027V123.158H58.3818L58.4834 124.479ZM63.1108 126.535V126.668C63.1108 127.168 63.0516 127.631 62.9331 128.059C62.8146 128.482 62.6411 128.85 62.4126 129.163C62.1883 129.476 61.9111 129.72 61.5811 129.893C61.251 130.067 60.8722 130.153 60.4448 130.153C60.009 130.153 59.6239 130.081 59.2896 129.938C58.9552 129.794 58.6717 129.584 58.439 129.309C58.2062 129.034 58.02 128.704 57.8804 128.319C57.745 127.934 57.6519 127.5 57.6011 127.018V126.307C57.6519 125.799 57.7471 125.344 57.8867 124.942C58.0264 124.54 58.2104 124.197 58.439 123.914C58.6717 123.626 58.9531 123.408 59.2832 123.26C59.6133 123.107 59.9941 123.031 60.4258 123.031C60.8574 123.031 61.2404 123.116 61.5747 123.285C61.909 123.45 62.1904 123.687 62.4189 123.996C62.6475 124.305 62.8188 124.675 62.9331 125.107C63.0516 125.534 63.1108 126.01 63.1108 126.535ZM61.9302 126.668V126.535C61.9302 126.192 61.8942 125.871 61.8223 125.57C61.7503 125.266 61.6382 124.999 61.4858 124.771C61.3377 124.538 61.1473 124.356 60.9146 124.225C60.6818 124.089 60.4046 124.021 60.083 124.021C59.7868 124.021 59.5286 124.072 59.3086 124.174C59.0928 124.275 58.9087 124.413 58.7563 124.586C58.604 124.756 58.4792 124.95 58.3818 125.17C58.2887 125.386 58.2189 125.611 58.1724 125.843V127.487C58.257 127.784 58.3755 128.063 58.5278 128.325C58.6802 128.583 58.8833 128.793 59.1372 128.954C59.3911 129.11 59.7106 129.188 60.0957 129.188C60.4131 129.188 60.686 129.123 60.9146 128.992C61.1473 128.856 61.3377 128.672 61.4858 128.439C61.6382 128.207 61.7503 127.94 61.8223 127.64C61.8942 127.335 61.9302 127.011 61.9302 126.668ZM68.2248 123.158V130.026H67.0441V123.158H68.2248ZM66.9552 121.336C66.9552 121.146 67.0124 120.985 67.1266 120.854C67.2451 120.723 67.4186 120.657 67.6471 120.657C67.8714 120.657 68.0428 120.723 68.1613 120.854C68.284 120.985 68.3454 121.146 68.3454 121.336C68.3454 121.518 68.284 121.675 68.1613 121.806C68.0428 121.933 67.8714 121.997 67.6471 121.997C67.4186 121.997 67.2451 121.933 67.1266 121.806C67.0124 121.675 66.9552 121.518 66.9552 121.336ZM73.7259 120.276V130.026H72.5452V120.276H73.7259ZM77.6401 126.668V126.522C77.6401 126.027 77.7121 125.568 77.8559 125.145C77.9998 124.718 78.2072 124.347 78.478 124.034C78.7488 123.717 79.0768 123.471 79.4619 123.298C79.847 123.12 80.2786 123.031 80.7568 123.031C81.2392 123.031 81.673 123.12 82.0581 123.298C82.4474 123.471 82.7775 123.717 83.0483 124.034C83.3234 124.347 83.5329 124.718 83.6767 125.145C83.8206 125.568 83.8926 126.027 83.8926 126.522V126.668C83.8926 127.164 83.8206 127.623 83.6767 128.046C83.5329 128.469 83.3234 128.839 83.0483 129.157C82.7775 129.47 82.4495 129.715 82.0644 129.893C81.6836 130.067 81.2519 130.153 80.7695 130.153C80.2871 130.153 79.8533 130.067 79.4682 129.893C79.0831 129.715 78.7531 129.47 78.478 129.157C78.2072 128.839 77.9998 128.469 77.8559 128.046C77.7121 127.623 77.6401 127.164 77.6401 126.668ZM78.8144 126.522V126.668C78.8144 127.011 78.8546 127.335 78.935 127.64C79.0154 127.94 79.136 128.207 79.2969 128.439C79.4619 128.672 79.6671 128.856 79.9126 128.992C80.158 129.123 80.4437 129.188 80.7695 129.188C81.0911 129.188 81.3725 129.123 81.6137 128.992C81.8592 128.856 82.0623 128.672 82.2231 128.439C82.3839 128.207 82.5045 127.94 82.5849 127.64C82.6696 127.335 82.7119 127.011 82.7119 126.668V126.522C82.7119 126.184 82.6696 125.864 82.5849 125.564C82.5045 125.259 82.3818 124.991 82.2168 124.758C82.056 124.521 81.8528 124.335 81.6074 124.199C81.3662 124.064 81.0827 123.996 80.7568 123.996C80.4352 123.996 80.1517 124.064 79.9062 124.199C79.665 124.335 79.4619 124.521 79.2969 124.758C79.136 124.991 79.0154 125.259 78.935 125.564C78.8546 125.864 78.8144 126.184 78.8144 126.522ZM90.5807 123.158V124.06H86.8673V123.158H90.5807ZM88.1242 121.489H89.2985V128.325C89.2985 128.558 89.3344 128.734 89.4064 128.852C89.4783 128.971 89.5714 129.049 89.6857 129.087C89.7999 129.125 89.9227 129.144 90.0538 129.144C90.1512 129.144 90.2527 129.136 90.3585 129.119C90.4686 129.097 90.5511 129.081 90.6061 129.068L90.6124 130.026C90.5193 130.056 90.3966 130.083 90.2443 130.109C90.0962 130.139 89.9163 130.153 89.7047 130.153C89.417 130.153 89.1525 130.096 88.9113 129.982C88.6701 129.868 88.4775 129.677 88.3336 129.411C88.194 129.14 88.1242 128.776 88.1242 128.319V121.489ZM105.798 125.069V126.173H99.4629V125.069H105.798ZM103.221 122.371V129.1H102.046V122.371H103.221Z" fill="white"/>
</svg>
